<svg width="117" height="82" viewBox="0 0 117 82" fill="none" xmlns="http://www.w3.org/2000/svg">
<rect x="13.5073" y="49.7329" width="56.964" height="25.6389" transform="rotate(-51.1284 13.5073 49.7329)" fill="#CFC45C"/>
<rect x="0.890015" y="38.293" width="28.5288" height="17.1691" transform="rotate(-48.9631 0.890015 38.293)" fill="#CFC45C"/>
<path d="M28.668 49H15.7383C15.6341 49 15.582 48.9349 15.582 48.8047L15.6211 21.3633C15.6211 21.2331 15.6862 21.168 15.8164 21.168H20.2695C20.3997 21.168 20.4648 21.2331 20.4648 21.3633L20.4258 44.0781H28.668C28.7982 44.0781 28.8633 44.1432 28.8633 44.2734V48.8047C28.8633 48.9349 28.7982 49 28.668 49Z" fill="black"/>
<path d="M32.2344 48.8047L37.1953 21.3242C37.2214 21.2201 37.2865 21.168 37.3906 21.168H43.1914C43.2956 21.168 43.3607 21.2201 43.3867 21.3242L48.1523 48.8047C48.1654 48.9349 48.1133 49 47.9961 49H43.5625C43.4323 49 43.3607 48.9349 43.3477 48.8047L42.918 45.875H37.4688L37.0391 48.8047C37.026 48.9349 36.9609 49 36.8438 49H32.3906C32.2865 49 32.2344 48.9349 32.2344 48.8047ZM40.0664 30.3672L38.2695 41.5977H42.1172L40.4766 30.3672L40.2422 28.8828L40.0664 30.3672Z" fill="black"/>
<path d="M61.2695 49H56.7773C56.6471 49 56.582 48.9349 56.582 48.8047L56.6602 21.3242C56.6602 21.2201 56.7122 21.168 56.8164 21.168H69.6289C69.7591 21.168 69.8242 21.2201 69.8242 21.3242V25.8359C69.8242 25.9401 69.7721 25.9922 69.668 25.9922H61.4648V32.2031H69.668C69.7721 32.2031 69.8242 32.2682 69.8242 32.3984L69.8633 36.9297C69.8633 37.0339 69.7982 37.0859 69.668 37.0859H61.4648V48.8047C61.4648 48.9349 61.3997 49 61.2695 49ZM78.1445 49H73.6133C73.4831 49 73.418 48.9349 73.418 48.8047L73.457 21.3242C73.457 21.2201 73.5091 21.168 73.6133 21.168H78.1055C78.2096 21.168 78.2617 21.2201 78.2617 21.3242L78.3008 48.8047C78.3008 48.9349 78.2487 49 78.1445 49ZM90.3516 49H85.8398C85.7227 49 85.6641 48.9349 85.6641 48.8047V25.9922H80.4688C80.3385 25.9922 80.2734 25.9271 80.2734 25.7969L80.3125 21.3242C80.3125 21.2201 80.3646 21.168 80.4688 21.168H95.6641C95.8073 21.168 95.8789 21.2201 95.8789 21.3242V25.7969C95.8789 25.9271 95.8268 25.9922 95.7227 25.9922H90.4688L90.5078 48.8047C90.5078 48.9349 90.4557 49 90.3516 49Z" fill="black"/>
<path d="M36.1406 67.8828L39.1172 51.3945C39.1328 51.332 39.1719 51.3008 39.2344 51.3008H42.7148C42.7773 51.3008 42.8164 51.332 42.832 51.3945L45.6914 67.8828C45.6992 67.9609 45.668 68 45.5977 68H42.9375C42.8594 68 42.8164 67.9609 42.8086 67.8828L42.5508 66.125H39.2812L39.0234 67.8828C39.0156 67.9609 38.9766 68 38.9062 68H36.2344C36.1719 68 36.1406 67.9609 36.1406 67.8828ZM40.8398 56.8203L39.7617 63.5586H42.0703L41.0859 56.8203L40.9453 55.9297L40.8398 56.8203ZM51.1172 68.2344C50.25 68.2344 49.457 68.0156 48.7383 67.5781C48.0273 67.1406 47.4609 66.5547 47.0391 65.8203C46.625 65.0781 46.418 64.2539 46.418 63.3477L46.4414 55.8594C46.4414 54.9688 46.6445 54.1641 47.0508 53.4453C47.457 52.7188 48.0156 52.1367 48.7266 51.6992C49.4453 51.2539 50.2422 51.0312 51.1172 51.0312C52.0078 51.0312 52.8008 51.2461 53.4961 51.6758C54.1992 52.1055 54.7578 52.6875 55.1719 53.4219C55.5938 54.1484 55.8047 54.9609 55.8047 55.8594V56.9609C55.8047 57.0234 55.7734 57.0547 55.7109 57.0547H53.0156C52.9531 57.0547 52.9219 57.0234 52.9219 56.9609V55.8594C52.9219 55.3281 52.75 54.8711 52.4062 54.4883C52.0625 54.1055 51.6328 53.9141 51.1172 53.9141C50.5469 53.9141 50.1094 54.1094 49.8047 54.5C49.5 54.8906 49.3477 55.3438 49.3477 55.8594V63.3477C49.3477 63.9336 49.5195 64.4141 49.8633 64.7891C50.207 65.1562 50.625 65.3398 51.1172 65.3398C51.6328 65.3398 52.0625 65.1367 52.4062 64.7305C52.75 64.3164 52.9219 63.8555 52.9219 63.3477V62.2344C52.9219 62.1719 52.9531 62.1406 53.0156 62.1406H55.7344C55.7969 62.1406 55.8281 62.1719 55.8281 62.2344V63.3477C55.8281 64.2461 55.6172 65.0664 55.1953 65.8086C54.7656 66.543 54.1992 67.1328 53.4961 67.5781C52.793 68.0156 52 68.2344 51.1172 68.2344ZM56.7656 67.8828L59.7422 51.3945C59.7578 51.332 59.7969 51.3008 59.8594 51.3008H63.3398C63.4023 51.3008 63.4414 51.332 63.457 51.3945L66.3164 67.8828C66.3242 67.9609 66.293 68 66.2227 68H63.5625C63.4844 68 63.4414 67.9609 63.4336 67.8828L63.1758 66.125H59.9062L59.6484 67.8828C59.6406 67.9609 59.6016 68 59.5312 68H56.8594C56.7969 68 56.7656 67.9609 56.7656 67.8828ZM61.4648 56.8203L60.3867 63.5586H62.6953L61.7109 56.8203L61.5703 55.9297L61.4648 56.8203ZM72.2344 67.9766L67.9336 68C67.8555 68 67.8164 67.9609 67.8164 67.8828L67.8633 51.3945C67.8633 51.332 67.8945 51.3008 67.957 51.3008L72.4453 51.2773C73.3359 51.2539 74.1406 51.457 74.8594 51.8867C75.5859 52.3164 76.1641 52.8984 76.5938 53.6328C77.0312 54.3594 77.25 55.1641 77.25 56.0469V62.9375C77.25 63.8594 77.0273 64.7031 76.582 65.4688C76.1289 66.2266 75.5273 66.832 74.7773 67.2852C74.0273 67.7305 73.1797 67.9609 72.2344 67.9766ZM72.4453 54.1484L70.7695 54.1719L70.7461 65.0469H72.2344C72.8281 65.0469 73.3281 64.8398 73.7344 64.4258C74.1406 64.0117 74.3438 63.5156 74.3438 62.9375V56.0234C74.3438 55.5156 74.1562 55.0742 73.7812 54.6992C73.4062 54.3164 72.9609 54.1328 72.4453 54.1484ZM86.9883 68H79.2305C79.168 68 79.1367 67.9609 79.1367 67.8828L79.1602 51.3945C79.1602 51.332 79.1914 51.3008 79.2539 51.3008H86.9648C87.0273 51.3008 87.0586 51.3398 87.0586 51.418V54.1016C87.0586 54.1641 87.0273 54.1953 86.9648 54.1953H82.043V57.9453H86.9648C87.0273 57.9453 87.0586 57.9766 87.0586 58.0391L87.082 60.7578C87.082 60.8203 87.0508 60.8516 86.9883 60.8516H82.043V65.0469H86.9883C87.0508 65.0469 87.082 65.0859 87.082 65.1641V67.9062C87.082 67.9688 87.0508 68 86.9883 68ZM92.0273 68H89.3086C89.2461 68 89.2148 67.9609 89.2148 67.8828L89.2617 51.3945C89.2617 51.332 89.293 51.3008 89.3555 51.3008H92.2852C92.3477 51.3008 92.4023 51.332 92.4492 51.3945L94.6406 54.5586L96.8203 51.3945C96.8672 51.332 96.9258 51.3008 96.9961 51.3008H99.9375C100.008 51.3008 100.043 51.332 100.043 51.3945L100.09 67.8828C100.09 67.9609 100.059 68 99.9961 68H97.2773C97.2148 68 97.1836 67.9609 97.1836 67.8828L97.1602 55.6367L94.6406 59.293L92.1445 55.6367L92.1211 67.8828C92.1211 67.9609 92.0898 68 92.0273 68ZM104.941 68H102.223C102.145 68 102.105 67.9609 102.105 67.8828L102.129 51.3945C102.129 51.332 102.16 51.3008 102.223 51.3008H104.918C104.98 51.3008 105.012 51.332 105.012 51.3945L105.035 67.8828C105.035 67.9609 105.004 68 104.941 68ZM106.336 67.8828L109.312 51.3945C109.328 51.332 109.367 51.3008 109.43 51.3008H112.91C112.973 51.3008 113.012 51.332 113.027 51.3945L115.887 67.8828C115.895 67.9609 115.863 68 115.793 68H113.133C113.055 68 113.012 67.9609 113.004 67.8828L112.746 66.125H109.477L109.219 67.8828C109.211 67.9609 109.172 68 109.102 68H106.43C106.367 68 106.336 67.9609 106.336 67.8828ZM111.035 56.8203L109.957 63.5586H112.266L111.281 56.8203L111.141 55.9297L111.035 56.8203Z" fill="black"/>
</svg>
